<svg width="600" height="400" xmlns="http://www.w3.org/2000/svg">
 <!-- Created with Method Draw - http://github.com/duopixel/Method-Draw/ -->
 <g>
  <title>background</title>
  <rect fill="#ffffff" id="canvas_background" height="402" width="602" y="-1" x="-1"/>
 </g>
 <g>
  <title>Layer 1</title>
  <line stroke-dasharray="2,2" stroke-linecap="null" stroke-linejoin="null" id="svg_1" y2="197.06656" x2="544.83786" y1="197.06656" x1="57.7432" fill-opacity="null" stroke-opacity="null" stroke="#000" fill="none"/>
  <ellipse stroke="#000" ry="5.16126" rx="5.58241" id="svg_2" cy="196.45727" cx="55.81672" fill-opacity="null" stroke-opacity="null" stroke-width="0" fill="#000000"/>
  <path id="svg_5" d="m103.05598,92.47418" opacity="0.5" fill-opacity="null" stroke-opacity="null" stroke="#000" fill="none"/>
  <path id="svg_6" d="m101.38932,123.58523" opacity="0.5" fill-opacity="null" stroke-opacity="null" stroke-width="2" stroke="#000" fill="none"/>
  <path id="svg_8" d="m86.66775,44.88866" opacity="0.5" fill-opacity="null" stroke-opacity="null" stroke-width="2" stroke="#000" fill="none"/>
  <path id="svg_9" d="m86.66775,46.66643c0.88888,0 53.77751,149.33258 53.77598,148.88814c0.00153,0.44444 -54.22042,150.6659 -54.22195,150.6659" opacity="0.5" fill-opacity="null" stroke-opacity="null" stroke-width="2" stroke="#000" fill="none"/>
  <path id="svg_10" d="m182.66727,329.7761l31.99831,-132.44377l35.99982,123.99937" opacity="0.5" fill-opacity="null" stroke-opacity="null" stroke-width="2" stroke="#000" fill="none"/>
  <path id="svg_11" d="m263.1113,55.99971l13.33173,143.55483l47.11087,-153.33255" opacity="0.5" fill-opacity="null" stroke-opacity="null" stroke-width="2" stroke="#000" fill="none"/>
  <path id="svg_12" d="m306.66664,319.55393l6.6651,-122.66605l34.22205,0l17.33325,-125.77714" opacity="0.5" fill-opacity="null" stroke-opacity="null" stroke-width="2" stroke="#000" fill="none"/>
  <path id="svg_13" d="m367.55522,268.44308l8.44287,-72.44408l31.11095,0.44444l23.55544,122.66604" opacity="0.5" fill-opacity="null" stroke-opacity="null" stroke-width="2" stroke="#000" fill="none"/>
  <path id="svg_15" d="m443.99928,85.3329l30.22053,111.11055l40.88868,0.44444l33.33316,-142.66594" opacity="0.5" fill-opacity="null" stroke-opacity="null" stroke-width="2" stroke="#000" fill="none"/>
  <text xml:space="preserve" text-anchor="start" font-family="Helvetica, Arial, sans-serif" font-size="14" id="svg_16" y="204.88785" x="547.10987" fill-opacity="null" stroke-opacity="null" stroke-width="0" stroke="#000" fill="#000000">Ray</text>
 </g>
</svg>